<svg xmlns="http://www.w3.org/2000/svg" viewBox="0 0 32 32">
  <defs>
    <!-- Gradient definitions for each element -->
    <linearGradient id="fire" x1="0%" y1="0%" x2="100%" y2="100%">
      <stop offset="0%" style="stop-color:#FF4500;stop-opacity:1" />
      <stop offset="100%" style="stop-color:#DC143C;stop-opacity:1" />
    </linearGradient>
    
    <linearGradient id="water" x1="0%" y1="0%" x2="100%" y2="100%">
      <stop offset="0%" style="stop-color:#1E90FF;stop-opacity:1" />
      <stop offset="100%" style="stop-color:#4169E1;stop-opacity:1" />
    </linearGradient>
    
    <linearGradient id="earth" x1="0%" y1="0%" x2="100%" y2="100%">
      <stop offset="0%" style="stop-color:#8B4513;stop-opacity:1" />
      <stop offset="100%" style="stop-color:#A0522D;stop-opacity:1" />
    </linearGradient>
    
    <linearGradient id="air" x1="0%" y1="0%" x2="100%" y2="100%">
      <stop offset="0%" style="stop-color:#87CEEB;stop-opacity:1" />
      <stop offset="100%" style="stop-color:#B0E0E6;stop-opacity:1" />
    </linearGradient>
    
    <linearGradient id="lightning" x1="0%" y1="0%" x2="100%" y2="100%">
      <stop offset="0%" style="stop-color:#FFD700;stop-opacity:1" />
      <stop offset="100%" style="stop-color:#FFA500;stop-opacity:1" />
    </linearGradient>
    
    <linearGradient id="nature" x1="0%" y1="0%" x2="100%" y2="100%">
      <stop offset="0%" style="stop-color:#32CD32;stop-opacity:1" />
      <stop offset="100%" style="stop-color:#228B22;stop-opacity:1" />
    </linearGradient>
    
    <linearGradient id="magic" x1="0%" y1="0%" x2="100%" y2="100%">
      <stop offset="0%" style="stop-color:#9932CC;stop-opacity:1" />
      <stop offset="100%" style="stop-color:#8A2BE2;stop-opacity:1" />
    </linearGradient>
    
    <!-- Overall gem gradient -->
    <radialGradient id="gemGlow" cx="50%" cy="30%" r="70%">
      <stop offset="0%" style="stop-color:#ffffff;stop-opacity:0.8" />
      <stop offset="50%" style="stop-color:#ffffff;stop-opacity:0.3" />
      <stop offset="100%" style="stop-color:#000000;stop-opacity:0.2" />
    </radialGradient>
  </defs>
  
  <!-- Background circle -->
  <circle cx="16" cy="16" r="15" fill="#1a1a3a" stroke="#444" stroke-width="1"/>
  
  <!-- Main gem shape -->
  <polygon points="16,3 24,10 24,22 16,29 8,22 8,10" fill="url(#lightning)" stroke="#fff" stroke-width="0.5" opacity="0.9"/>
  
  <!-- Elemental segments -->
  <polygon points="16,3 24,10 16,16" fill="url(#fire)" opacity="0.8"/>
  <polygon points="24,10 24,22 16,16" fill="url(#water)" opacity="0.8"/>
  <polygon points="24,22 16,29 16,16" fill="url(#earth)" opacity="0.8"/>
  <polygon points="16,29 8,22 16,16" fill="url(#nature)" opacity="0.8"/>
  <polygon points="8,22 8,10 16,16" fill="url(#air)" opacity="0.8"/>
  <polygon points="8,10 16,3 16,16" fill="url(#magic)" opacity="0.8"/>
  
  <!-- Gem highlight and depth -->
  <polygon points="16,3 24,10 24,22 16,29 8,22 8,10" fill="url(#gemGlow)" opacity="0.6"/>
  
  <!-- Top facet highlight -->
  <polygon points="16,3 20,7 16,11 12,7" fill="#ffffff" opacity="0.9"/>
  
  <!-- Side facets -->
  <polygon points="20,7 24,10 20,14 16,11" fill="#ffffff" opacity="0.3"/>
  <polygon points="12,7 16,11 12,14 8,10" fill="#ffffff" opacity="0.3"/>
  
  <!-- Lightning bolt accent in center -->
  <path d="M 14,12 L 18,12 L 16,8 L 18,8 L 14,16 L 16,16 L 14,20 L 18,14 L 16,14 L 18,18 Z" 
        fill="#FFD700" stroke="#FFA500" stroke-width="0.3" opacity="0.9" transform="scale(0.6) translate(10,6)"/>
</svg> 